<svg version="1.1" id="Layer_1" xmlns="http://www.w3.org/2000/svg" xmlns:xlink="http://www.w3.org/1999/xlink" x="0px" y="0px"
	 viewBox="0 0 1240.2 969.1" style="enable-background:new 0 0 1240.2 969.1;" xml:space="preserve">
<style type="text/css">
	.st0{fill:#fff;}
</style>
<path class="st0" d="M879.2,827.7c0,7.2-1.4,14.3-1.4,21.5c0,80.2,38.7,118.9,113.2,118.9c97.4,0,176.2-68.7,220.7-196.2l-28.7-12.9
	c-43,103.1-94.6,151.8-123.2,151.8c-15.8,0-22.9-8.6-22.9-28.6c0-15.8,4.3-35.8,11.5-64.4L1240.2,0c-88.8,10-180.5,14.3-273.7,14.3
	c-12.9,0-25.8,0-38.7,0v40.1h114.6L945.1,474c-14.3-63-63-98.8-134.7-98.8c-80.2,0-171.9,44.4-242.2,127.5
	c-63,74.5-97.4,167.5-97.4,242c0,128.9,81.7,223.4,202,223.4C754.5,968.1,821.8,922.2,879.2,827.7z M830.4,409.6
	c57.3,0,94.6,47.3,94.6,140.3C925,747.5,806.1,928,704.3,928c-34.4,0-53-17.2-53-50.1c0-11.5,11.5-136,64.5-303.6
	C747.3,471.1,773.1,409.6,830.4,409.6z"/>
<path class="st0" d="M204.9,969.1c154.7,0,245-87.4,245-211.9c0-73-37.3-128.9-114.6-180.4c-81.7-54.4-137.6-71.6-137.6-113.1
	c0-30.1,37.3-55.8,94.6-55.8c33,0,48.7,10,48.7,30.1c0,8.6-4.3,22.9-4.3,40.1c0,43,31.5,73,73.1,73c38.7,0,63-28.6,63-68.7
	c0-60.1-63-107.4-167.6-107.4c-139,0-223.5,94.5-223.5,190.5c0,74.5,53,123.2,146.2,183.3C292.3,790.1,331,817.3,331,858.8
	c0,45.8-48.7,75.9-116.1,75.9c-50.1,0-75.9-14.3-75.9-40.1c0-15.8,18.6-35.8,18.6-70.2c0-41.5-30.1-71.6-78.8-71.6
	C30.1,752.9,0,787.2,0,835.9C0,909,73.1,969.1,204.9,969.1z"/>
</svg>
